<?xml version="1.0" encoding="UTF-8" standalone="no"?>
<!-- Created with Inkscape (http://www.inkscape.org/) -->

<svg
   xmlns:dc="http://purl.org/dc/elements/1.1/"
   xmlns:cc="http://creativecommons.org/ns#"
   xmlns:rdf="http://www.w3.org/1999/02/22-rdf-syntax-ns#"
   xmlns:svg="http://www.w3.org/2000/svg"
   xmlns="http://www.w3.org/2000/svg"
   xmlns:sodipodi="http://sodipodi.sourceforge.net/DTD/sodipodi-0.dtd"
   xmlns:inkscape="http://www.inkscape.org/namespaces/inkscape"
   width="201.04237mm"
   height="201.04237mm"
   viewBox="0 0 201.04237 201.04237"
   version="1.1"
   id="svg8"
   inkscape:version="0.92.4 (5da689c313, 2019-01-14)"
   sodipodi:docname="dog.svg">
  <defs
     id="defs2" />
  <sodipodi:namedview
     id="base"
     pagecolor="#ffffff"
     bordercolor="#666666"
     borderopacity="1.0"
     inkscape:pageopacity="0.0"
     inkscape:pageshadow="2"
     inkscape:zoom="0.7"
     inkscape:cx="325.91729"
     inkscape:cy="276.91021"
     inkscape:document-units="mm"
     inkscape:current-layer="layer1"
     showgrid="false"
     inkscape:window-width="1920"
     inkscape:window-height="1017"
     inkscape:window-x="-8"
     inkscape:window-y="-8"
     inkscape:window-maximized="1" />
  <metadata
     id="metadata5">
    <rdf:RDF>
      <cc:Work
         rdf:about="">
        <dc:format>image/svg+xml</dc:format>
        <dc:type
           rdf:resource="http://purl.org/dc/dcmitype/StillImage" />
        <dc:title />
      </cc:Work>
    </rdf:RDF>
  </metadata>
  <g
     inkscape:label="Calque 1"
     inkscape:groupmode="layer"
     id="layer1"
     transform="translate(-5.4654694,-37.132668)">
    <path
       style="opacity:1;vector-effect:none;fill:#deebff;fill-opacity:1;fill-rule:evenodd;stroke:none;stroke-width:0.20634848;stroke-linecap:butt;stroke-linejoin:miter;stroke-miterlimit:4;stroke-dasharray:none;stroke-dashoffset:0;stroke-opacity:1"
       id="path818"
       sodipodi:type="arc"
       sodipodi:cx="105.98666"
       sodipodi:cy="137.65385"
       sodipodi:rx="100.52119"
       sodipodi:ry="100.52119"
       sodipodi:start="0.27830322"
       sodipodi:end="0.27829449"
       d="M 202.64009,165.26949 A 100.52119,100.52119 0 0 1 78.371229,234.30734 100.52119,100.52119 0 0 1 9.3331056,110.03864 100.52119,100.52119 0 0 1 133.60166,41.000244 100.52119,100.52119 0 0 1 202.64033,165.26865 l -96.65367,-27.6148 z" />
    <g
       id="g827"
       transform="matrix(0.73491518,0,0,0.73491518,651.16242,29.041697)"
       style="fill:#0065fc;fill-opacity:1">
      <path
         style="fill:#0065fc;fill-opacity:1;stroke-width:0.26458332"
         d="m -803.8498,213.14807 c -1.2918,-0.5867 -2.5724,-2.06493 -2.9866,-3.44738 -0.2199,-0.73414 -0.302,-10.92477 -0.302,-37.50813 v -36.50012 l -2.0117,-0.8841 c -5.016,-2.20433 -9.6836,-5.85338 -12.8178,-10.02069 -4.2028,-5.58812 -6.329,-11.22615 -6.7649,-17.93853 -0.3566,-5.49177 1.762,-9.475628 6.2071,-11.671458 1.9284,-0.95266 2.1007,-0.98815 4.7971,-0.98815 2.6312,0 2.9021,0.0519 4.5756,0.87587 3.9548,1.94729 5.7588,4.75528 6.4058,9.970648 0.4497,3.62484 1.0815,5.18108 2.9453,7.25406 1.4206,1.57998 3.7832,2.82848 6.0562,3.20025 0.969,0.15848 12.8607,0.26025 30.5197,0.26118 l 28.9323,0.002 3.3469,1.18998 c 1.8408,0.65448 6.0259,2.1497 9.3001,3.32269 12.5868,4.50926 21.06923,7.53507 28.97184,10.33473 4.51115,1.59817 8.46998,3.08124 8.7974,3.2957 l 0.59531,0.38994 -0.003,37.36628 -0.003,37.3663 -0.62107,1.33373 c -0.71977,1.54571 -1.89593,2.63287 -3.28829,3.03948 -0.65904,0.19246 -4.98181,0.2598 -13.19149,0.20549 l -12.2111,-0.0808 -1.1502,-0.83121 c -0.6698,-0.48397 -1.4266,-1.36538 -1.8117,-2.10989 l -0.6615,-1.27868 v -19.18907 c 0,-10.55398 -0.096,-19.33789 -0.214,-19.51979 -0.1689,-0.26097 -5.8132,-0.33073 -26.7567,-0.33073 -20.9141,0 -26.5997,0.0701 -26.8119,0.33073 -0.1786,0.21926 -0.2458,6.66175 -0.1994,19.11614 0.078,20.84863 0.108,20.43278 -1.6214,22.21342 -1.716,1.7669 -1.416,1.732 -14.8334,1.72556 -11.2111,-0.005 -12.1934,-0.0422 -13.1902,-0.49499 z m 114.45098,-91.17298 c -0.50932,-0.19539 -4.14073,-1.48702 -8.06979,-2.87029 -7.0116,-2.46851 -16.54979,-5.87095 -27.46459,-9.79707 -3.0273,-1.08894 -5.6467,-2.09815 -5.8208,-2.2427 -0.2421,-0.20088 -0.3142,-6.39421 -0.3059,-26.280619 0.011,-25.957427 0.012,-26.020268 0.5695,-27.076146 1.0507,-1.989855 2.7725,-3.042708 4.976,-3.042708 2.1348,0 2.9098,0.548957 8.1381,5.764532 l 4.9631,4.951093 10.38923,0.132291 10.38923,0.132292 1.84557,0.907444 c 2.63752,1.296839 4.53345,3.288095 6.08114,6.386886 0.68544,1.372388 1.43028,2.703613 1.6552,2.958274 0.37726,0.427146 1.28211,0.463471 11.67888,0.468831 10.32866,0.0053 11.3585,0.04605 12.33053,0.487633 1.33389,0.605975 2.66334,2.101315 3.02453,3.40193 0.16055,0.578162 0.2767,3.843232 0.27554,7.746294 -0.002,8.130177 -0.33938,10.281845 -2.21361,14.134545 -3.07147,6.313778 -8.88039,10.817258 -15.5907,12.087028 -1.0098,0.19108 -3.95024,0.29062 -7.66998,0.25964 -3.3178,-0.0276 -6.2646,0.0235 -6.54844,0.11357 -0.49104,0.15585 -0.51607,0.44525 -0.51607,5.96679 v 5.80301 l -0.59531,-0.0187 c -0.32742,-0.0103 -1.01203,-0.17851 -1.52136,-0.3739 z m -6.12848,-39.748967 c 3.43863,-2.136076 3.08568,-7.425267 -0.60745,-9.102822 -1.94722,-0.884503 -4.18827,-0.482663 -5.78925,1.038063 -1.11969,1.063567 -1.49773,1.978288 -1.49773,3.623985 0,2.109237 0.88678,3.721679 2.51291,4.569266 1.97426,1.029039 3.57984,0.990703 5.38152,-0.128492 z"
         id="path841"
         inkscape:connector-curvature="0"
         sodipodi:nodetypes="ccscccccsccccccssscccccccccccscscccccccsscccsccccsscccccscscscccccccscc" />
    </g>
  </g>
</svg>
