<?xml version="1.0" encoding="UTF-8" standalone="no"?>
<!-- Created with Inkscape (http://www.inkscape.org/) -->

<svg
   xmlns:dc="http://purl.org/dc/elements/1.1/"
   xmlns:cc="http://creativecommons.org/ns#"
   xmlns:rdf="http://www.w3.org/1999/02/22-rdf-syntax-ns#"
   xmlns:svg="http://www.w3.org/2000/svg"
   xmlns="http://www.w3.org/2000/svg"
   xmlns:sodipodi="http://sodipodi.sourceforge.net/DTD/sodipodi-0.dtd"
   xmlns:inkscape="http://www.inkscape.org/namespaces/inkscape"
   width="210mm"
   height="297mm"
   viewBox="0 0 210 297"
   version="1.1"
   id="svg8"
   inkscape:version="0.92.4 (5da689c313, 2019-01-14)"
   sodipodi:docname="eco.svg">
  <defs
     id="defs2" />
  <sodipodi:namedview
     id="base"
     pagecolor="#ffffff"
     bordercolor="#666666"
     borderopacity="1.0"
     inkscape:pageopacity="0.0"
     inkscape:pageshadow="2"
     inkscape:zoom="0.9899495"
     inkscape:cx="259.77408"
     inkscape:cy="489.91245"
     inkscape:document-units="mm"
     inkscape:current-layer="layer1"
     showgrid="false"
     inkscape:window-width="1920"
     inkscape:window-height="1017"
     inkscape:window-x="-8"
     inkscape:window-y="-8"
     inkscape:window-maximized="1" />
  <metadata
     id="metadata5">
    <rdf:RDF>
      <cc:Work
         rdf:about="">
        <dc:format>image/svg+xml</dc:format>
        <dc:type
           rdf:resource="http://purl.org/dc/dcmitype/StillImage" />
        <dc:title />
      </cc:Work>
    </rdf:RDF>
  </metadata>
  <g
     inkscape:label="Calque 1"
     inkscape:groupmode="layer"
     id="layer1">
    <path
       style="opacity:1;vector-effect:none;fill:#deebff;fill-opacity:1;fill-rule:evenodd;stroke:none;stroke-width:0.19911382;stroke-linecap:butt;stroke-linejoin:miter;stroke-miterlimit:4;stroke-dasharray:none;stroke-dashoffset:0;stroke-opacity:1"
       id="path818"
       sodipodi:type="arc"
       sodipodi:cx="103.66676"
       sodipodi:cy="153.04991"
       sodipodi:rx="98.355171"
       sodipodi:ry="98.355171"
       sodipodi:start="0.27830322"
       sodipodi:end="0.27829449"
       d="M 198.23752,180.07049 A 98.355171,98.355171 0 0 1 76.646389,247.62073 98.355171,98.355171 0 0 1 9.0958891,126.02974 98.355171,98.355171 0 0 1 130.68672,58.478978 98.355171,98.355171 0 0 1 198.23776,180.06967 l -94.571,-27.01976 z" />
    <path
       style="fill:#0065fc;fill-opacity:1;stroke:#0065fc;stroke-width:4.06108713;stroke-linejoin:round;stroke-miterlimit:4;stroke-dasharray:none;stroke-opacity:1"
       d="m 39.757709,118.0435 c 67.764431,7.15027 52.541302,-18.430433 127.320751,-14.93932 l -0.008,84.1983 c -70.358998,-8.42584 -60.39077,19.58273 -127.349859,13.94607 z"
       id="path839"
       inkscape:connector-curvature="0"
       sodipodi:nodetypes="ccccc" />
    <path
       style="fill:#deebff;fill-opacity:1;stroke-width:0.30140135"
       d="m 52.5147,199.75924 c 1.500899,-1.37514 2.40077,-3.40073 2.350248,-5.29024 -0.024,-0.89701 -0.11249,-1.84203 -0.19667,-2.10001 -0.417645,-1.27993 -2.10636,-3.20534 -3.377604,-3.85107 -4.683864,-2.37917 -9.658688,0.47862 -10.086838,5.79437 -0.460634,5.71938 7.060419,9.3413 11.310864,5.44695 z"
       id="path839-6"
       inkscape:connector-curvature="0"
       sodipodi:nodetypes="scsccs" />
    <path
       style="fill:#deebff;fill-opacity:1;stroke-width:0.30140135"
       d="m 163.64946,183.05964 c 1.50088,-1.37514 2.40077,-3.40073 2.35024,-5.29024 -0.024,-0.897 -0.11243,-1.84204 -0.19668,-2.10001 -0.41763,-1.27992 -2.10634,-3.20535 -3.3776,-3.85108 -4.68386,-2.37916 -9.65868,0.47863 -10.08683,5.79439 -0.46064,5.71939 7.06041,9.34128 11.31087,5.44694 z"
       id="path839-6-0"
       inkscape:connector-curvature="0"
       sodipodi:nodetypes="scsccs" />
    <path
       style="fill:#deebff;fill-opacity:1;stroke-width:0.30140135"
       d="m 52.184158,131.52614 c 1.5009,-1.37515 2.400772,-3.40073 2.350248,-5.29025 -0.024,-0.89702 -0.112491,-1.84203 -0.196669,-2.1 -0.417645,-1.27994 -2.10636,-3.20535 -3.377604,-3.85109 -4.683863,-2.37916 -9.658688,0.47864 -10.086838,5.79439 -0.460633,5.71938 7.060419,9.34129 11.310863,5.44695 z"
       id="path839-6-5"
       inkscape:connector-curvature="0"
       sodipodi:nodetypes="scsccs" />
    <path
       style="fill:#deebff;fill-opacity:1;stroke-width:0.30140135"
       d="m 163.34612,115.68769 c 1.5009,-1.37515 2.40078,-3.40073 2.35026,-5.29026 -0.024,-0.89701 -0.11255,-1.84202 -0.19668,-2.1 -0.41764,-1.27992 -2.10636,-3.20535 -3.37761,-3.85109 -4.68386,-2.37916 -9.65868,0.47864 -10.08683,5.79441 -0.46063,5.71938 7.06043,9.34128 11.31086,5.44694 z"
       id="path839-6-0-9"
       inkscape:connector-curvature="0"
       sodipodi:nodetypes="scsccs" />
    <path
       style="opacity:1;vector-effect:none;fill:#deebff;fill-opacity:1;fill-rule:evenodd;stroke:none;stroke-width:0.1580365;stroke-linecap:butt;stroke-linejoin:miter;stroke-miterlimit:4;stroke-dasharray:none;stroke-dashoffset:0;stroke-opacity:1"
       id="path919"
       sodipodi:type="arc"
       sodipodi:cx="103.87939"
       sodipodi:cy="149.62389"
       sodipodi:rx="23.988222"
       sodipodi:ry="33.599796"
       sodipodi:start="0.27830299"
       sodipodi:end="0.27829409"
       d="m 126.94461,158.85457 a 23.988222,33.599796 0 0 1 -29.65532,23.07631 23.988222,33.599796 0 0 1 -16.475161,-41.53753 23.988222,33.599796 0 0 1 29.655251,-23.0765 23.988222,33.599796 0 0 1 16.47529,41.53743 l -23.06528,-9.23039 z" />
  </g>
</svg>
