<?xml version="1.0" encoding="UTF-8" standalone="no"?>
<!-- Created with Inkscape (http://www.inkscape.org/) -->

<svg
   xmlns:dc="http://purl.org/dc/elements/1.1/"
   xmlns:cc="http://creativecommons.org/ns#"
   xmlns:rdf="http://www.w3.org/1999/02/22-rdf-syntax-ns#"
   xmlns:svg="http://www.w3.org/2000/svg"
   xmlns="http://www.w3.org/2000/svg"
   xmlns:sodipodi="http://sodipodi.sourceforge.net/DTD/sodipodi-0.dtd"
   xmlns:inkscape="http://www.inkscape.org/namespaces/inkscape"
   width="202.22343mm"
   height="202.22343mm"
   viewBox="0 0 202.22343 202.22343"
   version="1.1"
   id="svg8"
   inkscape:version="0.92.4 (5da689c313, 2019-01-14)"
   sodipodi:docname="guy.svg">
  <defs
     id="defs2" />
  <sodipodi:namedview
     id="base"
     pagecolor="#ffffff"
     bordercolor="#666666"
     borderopacity="1.0"
     inkscape:pageopacity="0.0"
     inkscape:pageshadow="2"
     inkscape:zoom="0.7"
     inkscape:cx="34.452199"
     inkscape:cy="353.00258"
     inkscape:document-units="mm"
     inkscape:current-layer="layer1"
     showgrid="false"
     inkscape:window-width="1920"
     inkscape:window-height="1017"
     inkscape:window-x="-8"
     inkscape:window-y="-8"
     inkscape:window-maximized="1" />
  <metadata
     id="metadata5">
    <rdf:RDF>
      <cc:Work
         rdf:about="">
        <dc:format>image/svg+xml</dc:format>
        <dc:type
           rdf:resource="http://purl.org/dc/dcmitype/StillImage" />
        <dc:title />
      </cc:Work>
    </rdf:RDF>
  </metadata>
  <g
     inkscape:label="Calque 1"
     inkscape:groupmode="layer"
     id="layer1"
     transform="translate(-4.1546555,-52.635307)">
    <path
       style="opacity:1;vector-effect:none;fill:#deebff;fill-opacity:1;fill-rule:evenodd;stroke:none;stroke-width:0.20251273;stroke-linecap:butt;stroke-linejoin:miter;stroke-miterlimit:4;stroke-dasharray:none;stroke-dashoffset:0;stroke-opacity:1"
       id="path818"
       sodipodi:type="arc"
       sodipodi:cx="105.26637"
       sodipodi:cy="153.74702"
       sodipodi:rx="101.11172"
       sodipodi:ry="101.11172"
       sodipodi:start="0.27830322"
       sodipodi:end="0.27829449"
       d="M 202.48761,181.5249 A 101.11172,101.11172 0 0 1 77.488714,250.96832 101.11172,101.11172 0 0 1 8.0450128,125.96958 101.11172,101.11172 0 0 1 133.04361,56.525604 101.11172,101.11172 0 0 1 202.48785,181.52405 l -97.22148,-27.77703 z" />
    <path
       style="fill:#0065fc;fill-opacity:1;stroke-width:0.28854203"
       d="m 89.304167,237.39784 c -1.790754,-0.86968 -3.088898,-2.21278 -3.952673,-4.08956 l -0.663992,-1.44272 -0.07644,-49.62924 -0.07644,-49.62922 -16.699337,-16.73544 C 49.821518,97.819083 50.371167,98.465251 50.400075,95.37483 c 0.04779,-5.10394 5.719188,-8.601469 10.250772,-6.321572 0.524319,0.26378 8.289466,7.776532 17.255916,16.695002 17.404476,17.31138 17.429635,17.33305 21.431065,18.48806 2.370552,0.68425 6.467562,0.62809 8.886642,-0.1218 1.04299,-0.32333 2.68277,-1.09615 3.64396,-1.7174 1.14902,-0.74264 7.17063,-6.56325 17.58024,-16.99339 10.69414,-10.715227 16.20723,-16.03905 16.98682,-16.403647 1.65418,-0.773653 4.80333,-0.722425 6.37525,0.103679 1.51886,0.798247 2.79825,2.265242 3.43918,3.943493 0.70729,1.851985 0.47678,4.567074 -0.51848,6.107464 -0.40361,0.624668 -8.0813,8.471521 -17.06151,17.437441 l -16.32771,16.30165 -0.003,49.63021 -0.003,49.63018 -0.68322,1.4427 c -0.79003,1.66832 -2.10807,2.99943 -3.86652,3.90493 -1.07141,0.55169 -1.5739,0.6204 -3.75104,0.5128 -2.08081,-0.10276 -2.71279,-0.25235 -3.6681,-0.8677 -1.61768,-1.04203 -2.60257,-2.16222 -3.3749,-3.83856 l -0.66469,-1.44272 -0.0808,-26.29879 -0.0808,-25.80725 c 0.0482,-1.06268 -0.73551,-2.0181 -2.52192,-2.02837 -1.84647,0 -2.70267,0.67476 -2.64166,1.98894 0,0 -0.29969,9.98081 -0.30257,26.75378 l -0.003,25.68024 -0.68206,1.4427 c -0.691963,1.46368 -1.543756,2.38825 -3.333611,3.61835 -0.810891,0.5573 -1.441843,0.69988 -3.462503,0.7824 -2.151519,0.0879 -2.657382,0.0112 -3.913614,-0.59972 z M 99.866134,120.75306 c -6.810482,-1.83145 -11.257833,-9.10669 -9.81028,-16.04821 1.848508,-8.864159 11.418306,-13.557581 19.537146,-9.581842 8.61047,4.216483 10.36916,15.746812 3.39665,22.269232 -1.92153,1.79754 -4.08168,3.00903 -6.26095,3.51145 -1.79012,0.41268 -5.03246,0.34152 -6.862566,-0.15063 z"
       id="path942"
       inkscape:connector-curvature="0"
       sodipodi:nodetypes="ccccccccssccccccccccccccccccccccccccccsccccs" />
  </g>
</svg>
