<?xml version="1.0" encoding="UTF-8" standalone="no"?>
<!-- Created with Inkscape (http://www.inkscape.org/) -->

<svg
   xmlns:dc="http://purl.org/dc/elements/1.1/"
   xmlns:cc="http://creativecommons.org/ns#"
   xmlns:rdf="http://www.w3.org/1999/02/22-rdf-syntax-ns#"
   xmlns:svg="http://www.w3.org/2000/svg"
   xmlns="http://www.w3.org/2000/svg"
   xmlns:sodipodi="http://sodipodi.sourceforge.net/DTD/sodipodi-0.dtd"
   xmlns:inkscape="http://www.inkscape.org/namespaces/inkscape"
   width="202.2198mm"
   height="202.20905mm"
   viewBox="0 0 202.2198 202.20905"
   version="1.1"
   id="svg8"
   inkscape:version="0.92.4 (5da689c313, 2019-01-14)"
   sodipodi:docname="info.svg">
  <defs
     id="defs2" />
  <sodipodi:namedview
     id="base"
     pagecolor="#ffffff"
     bordercolor="#666666"
     borderopacity="1.0"
     inkscape:pageopacity="0.0"
     inkscape:pageshadow="2"
     inkscape:zoom="0.49497475"
     inkscape:cx="301.08513"
     inkscape:cy="418.17334"
     inkscape:document-units="mm"
     inkscape:current-layer="layer1"
     showgrid="false"
     inkscape:window-width="1920"
     inkscape:window-height="1017"
     inkscape:window-x="-8"
     inkscape:window-y="-8"
     inkscape:window-maximized="1" />
  <metadata
     id="metadata5">
    <rdf:RDF>
      <cc:Work
         rdf:about="">
        <dc:format>image/svg+xml</dc:format>
        <dc:type
           rdf:resource="http://purl.org/dc/dcmitype/StillImage" />
        <dc:title></dc:title>
      </cc:Work>
    </rdf:RDF>
  </metadata>
  <g
     inkscape:label="Calque 1"
     inkscape:groupmode="layer"
     id="layer1"
     transform="translate(-5.5499795,-18.179883)">
    <path
       style="fill:#ffffff;stroke-width:0.43287748"
       d="M 98.231308,220.12166 C 67.038015,217.31971 39.339438,200.8976 22.008675,174.93034 15.852558,165.70644 9.9892678,151.77231 7.7547037,141.05596 5.968047,132.4874 5.5402795,128.17605 5.550145,118.8366 5.5566892,111.81258 5.7599222,108.69922 6.5206141,103.90234 10.774632,77.076845 24.581136,54.127787 46.21981,37.914679 59.186699,28.199047 74.436548,21.845673 91.14484,19.198056 c 7.317793,-1.159584 21.21609,-1.368407 28.01483,-0.420926 11.79812,1.644202 21.7385,4.603541 31.38363,9.343142 11.77838,5.787897 19.71931,11.522724 28.48924,20.57456 8.40475,8.674899 13.41062,15.801139 18.71177,26.637583 7.28343,14.88856 11.05081,34.215485 9.78291,50.187085 -1.19712,15.07996 -4.4189,26.92639 -10.72034,39.41856 -13.10507,25.97986 -37.1084,45.2488 -65.24168,52.37346 -9.66285,2.4471 -23.95873,3.65226 -33.333892,2.81014 z"
       id="path826"
       inkscape:connector-curvature="0"
       sodipodi:nodetypes="csccsssscsssccc" />
    <path
       style="fill:#0065fc;fill-opacity:1;stroke-width:0.83327883"
       d="m 135.22691,176.66726 v -7.91619 h -7.08287 -7.08287 V 130.00459 91.257123 H 101.89576 82.730347 v 7.91616 7.916157 h 7.08287 7.08287 v 31.24793 31.24798 h -7.08287 -7.08287 v 7.49951 7.49952 h 26.248263 26.2483 z"
       id="path826-0"
       inkscape:connector-curvature="0"
       sodipodi:nodetypes="ccccccccccccccccccccc" />
    <path
       style="opacity:1;vector-effect:none;fill:#0065fc;fill-opacity:1;fill-rule:evenodd;stroke:none;stroke-width:0.46316254;stroke-linecap:butt;stroke-linejoin:miter;stroke-miterlimit:4;stroke-dasharray:none;stroke-dashoffset:0;stroke-opacity:1"
       id="path843"
       sodipodi:type="arc"
       sodipodi:cx="106.31284"
       sodipodi:cy="62.066929"
       sodipodi:rx="18.774626"
       sodipodi:ry="18.774626"
       sodipodi:start="0.27830322"
       sodipodi:end="0.27829449"
       d="M 124.36508,67.22478 A 18.774626,18.774626 0 0 1 101.15503,80.119174 18.774626,18.774626 0 0 1 88.260587,56.909157 18.774626,18.774626 0 0 1 111.47058,44.014661 18.774626,18.774626 0 0 1 124.36512,67.224622 l -18.05228,-5.157693 z" />
  </g>
</svg>
