<?xml version="1.0" encoding="UTF-8" standalone="no"?>
<!-- Created with Inkscape (http://www.inkscape.org/) -->

<svg
   xmlns:dc="http://purl.org/dc/elements/1.1/"
   xmlns:cc="http://creativecommons.org/ns#"
   xmlns:rdf="http://www.w3.org/1999/02/22-rdf-syntax-ns#"
   xmlns:svg="http://www.w3.org/2000/svg"
   xmlns="http://www.w3.org/2000/svg"
   xmlns:sodipodi="http://sodipodi.sourceforge.net/DTD/sodipodi-0.dtd"
   xmlns:inkscape="http://www.inkscape.org/namespaces/inkscape"
   width="189.29106mm"
   height="189.29105mm"
   viewBox="0 0 189.29106 189.29105"
   version="1.1"
   id="svg8"
   inkscape:version="0.92.4 (5da689c313, 2019-01-14)"
   sodipodi:docname="search.svg">
  <defs
     id="defs2" />
  <sodipodi:namedview
     id="base"
     pagecolor="#ffffff"
     bordercolor="#666666"
     borderopacity="1.0"
     inkscape:pageopacity="0.0"
     inkscape:pageshadow="2"
     inkscape:zoom="0.7"
     inkscape:cx="13.445814"
     inkscape:cy="438.53445"
     inkscape:document-units="mm"
     inkscape:current-layer="layer1"
     showgrid="false"
     inkscape:window-width="1920"
     inkscape:window-height="1017"
     inkscape:window-x="-8"
     inkscape:window-y="-8"
     inkscape:window-maximized="1" />
  <metadata
     id="metadata5">
    <rdf:RDF>
      <cc:Work
         rdf:about="">
        <dc:format>image/svg+xml</dc:format>
        <dc:type
           rdf:resource="http://purl.org/dc/dcmitype/StillImage" />
        <dc:title />
      </cc:Work>
    </rdf:RDF>
  </metadata>
  <g
     inkscape:label="Calque 1"
     inkscape:groupmode="layer"
     id="layer1"
     transform="translate(-10.809822,-37.178871)">
    <rect
       style="opacity:1;vector-effect:none;fill:#0065fc;fill-opacity:1;fill-rule:evenodd;stroke:#0065fc;stroke-width:132.20683289;stroke-linecap:butt;stroke-linejoin:round;stroke-miterlimit:4;stroke-dasharray:none;stroke-dashoffset:190.5778656;stroke-opacity:1;paint-order:markers stroke fill"
       id="rect828"
       width="57.084221"
       height="57.084221"
       x="76.913239"
       y="103.28229" />
    <path
       style="opacity:1;fill:#ffffff;fill-opacity:1;stroke:#ffffff;stroke-width:0;stroke-linecap:round;stroke-linejoin:round;stroke-miterlimit:4;stroke-dasharray:none;stroke-dashoffset:0;stroke-opacity:1;paint-order:markers stroke fill"
       d="m 132.94589,169.0389 c -0.5873,-0.30034 -4.41747,-3.84435 -8.51147,-7.8756 l -7.44364,-7.32953 -3.37821,1.44226 c -1.85801,0.79324 -4.72037,1.80594 -6.36078,2.25043 -2.73249,0.74042 -3.4711,0.80808 -8.808811,0.80704 -5.007853,-8.2e-4 -6.156862,-0.0931 -8.179878,-0.65595 -5.864986,-1.63171 -9.793124,-3.91463 -14.152743,-8.22517 -3.590445,-3.55002 -5.472257,-6.08596 -7.266104,-9.79184 -2.624339,-5.42156 -3.715438,-11.68255 -3.064654,-17.5857 1.294149,-11.73904 8.005394,-21.45864 18.471313,-26.751173 6.328778,-3.200415 15.412126,-4.167375 22.814077,-2.428626 8.27054,1.942776 15.94831,7.620819 20.47266,15.140439 3.52378,5.85666 5.08198,13.0383 4.46959,20.60016 -0.43685,5.39413 -1.43837,8.47057 -4.63734,14.24467 l -1.44404,2.60648 5.44552,5.51959 c 8.45915,8.57423 10.10038,10.43558 10.34333,11.73059 0.41091,2.19039 -0.87711,5.14247 -2.64193,6.05508 -1.45556,0.7527 -4.86878,0.89022 -6.12689,0.24685 z m -28.21671,-21.72036 c 5.94027,-1.40839 11.60244,-5.9248 14.41636,-11.49911 1.7302,-3.42752 2.20073,-5.37696 2.36728,-9.80787 0.18286,-4.86472 -0.11591,-6.6596 -1.63677,-9.83311 -4.21466,-8.79452 -11.88519,-13.77519 -21.214574,-13.77519 -7.885917,0 -14.751424,3.90465 -19.33147,10.99448 -3.006244,7.55134 -4.167552,15.02436 -1.068965,21.23593 0.874396,1.75286 2.257638,4.0116 3.073874,5.01944 3.501208,4.3231 8.633088,7.24235 14.341073,8.15784 2.077324,0.33318 6.611122,0.0866 9.053192,-0.49241 z"
       id="path833"
       inkscape:connector-curvature="0"
       sodipodi:nodetypes="ccccccscssssssscccccccsssccccc" />
  </g>
</svg>
